<?xml version="1.0" standalone="no"?>
<svg xmlns:xlink="http://www.w3.org/1999/xlink" id="wave" style="transform:rotate(0deg); transition: 0.3s" viewBox="0 0 1440 130" version="1.1" xmlns="http://www.w3.org/2000/svg"><defs><linearGradient id="sw-gradient-0" x1="0" x2="0" y1="1" y2="0"><stop stop-color="rgba(243, 106, 62, 1)" offset="0%"/><stop stop-color="rgba(255, 179, 11, 1)" offset="100%"/></linearGradient></defs><path style="transform:translate(0, 0px); opacity:1" fill="url(#sw-gradient-0)" d="M0,26L48,26C96,26,192,26,288,28.2C384,30,480,35,576,43.3C672,52,768,65,864,78C960,91,1056,104,1152,93.2C1248,82,1344,48,1440,47.7C1536,48,1632,82,1728,86.7C1824,91,1920,65,2016,60.7C2112,56,2208,74,2304,75.8C2400,78,2496,65,2592,49.8C2688,35,2784,17,2880,23.8C2976,30,3072,61,3168,78C3264,95,3360,100,3456,101.8C3552,104,3648,104,3744,91C3840,78,3936,52,4032,47.7C4128,43,4224,61,4320,62.8C4416,65,4512,52,4608,45.5C4704,39,4800,39,4896,52C4992,65,5088,91,5184,104C5280,117,5376,117,5472,117C5568,117,5664,117,5760,108.3C5856,100,5952,82,6048,82.3C6144,82,6240,100,6336,101.8C6432,104,6528,91,6624,84.5C6720,78,6816,78,6864,78L6912,78L6912,130L6864,130C6816,130,6720,130,6624,130C6528,130,6432,130,6336,130C6240,130,6144,130,6048,130C5952,130,5856,130,5760,130C5664,130,5568,130,5472,130C5376,130,5280,130,5184,130C5088,130,4992,130,4896,130C4800,130,4704,130,4608,130C4512,130,4416,130,4320,130C4224,130,4128,130,4032,130C3936,130,3840,130,3744,130C3648,130,3552,130,3456,130C3360,130,3264,130,3168,130C3072,130,2976,130,2880,130C2784,130,2688,130,2592,130C2496,130,2400,130,2304,130C2208,130,2112,130,2016,130C1920,130,1824,130,1728,130C1632,130,1536,130,1440,130C1344,130,1248,130,1152,130C1056,130,960,130,864,130C768,130,672,130,576,130C480,130,384,130,288,130C192,130,96,130,48,130L0,130Z"/><defs><linearGradient id="sw-gradient-1" x1="0" x2="0" y1="1" y2="0"><stop stop-color="rgba(243, 106, 62, 1)" offset="0%"/><stop stop-color="rgba(255, 179, 11, 1)" offset="100%"/></linearGradient></defs><path style="transform:translate(0, 50px); opacity:0.9" fill="url(#sw-gradient-1)" d="M0,91L48,75.8C96,61,192,30,288,28.2C384,26,480,52,576,67.2C672,82,768,87,864,86.7C960,87,1056,82,1152,82.3C1248,82,1344,87,1440,73.7C1536,61,1632,30,1728,32.5C1824,35,1920,69,2016,69.3C2112,69,2208,35,2304,21.7C2400,9,2496,17,2592,36.8C2688,56,2784,87,2880,99.7C2976,113,3072,108,3168,97.5C3264,87,3360,69,3456,56.3C3552,43,3648,35,3744,30.3C3840,26,3936,26,4032,21.7C4128,17,4224,9,4320,13C4416,17,4512,35,4608,54.2C4704,74,4800,95,4896,97.5C4992,100,5088,82,5184,75.8C5280,69,5376,74,5472,80.2C5568,87,5664,95,5760,91C5856,87,5952,69,6048,60.7C6144,52,6240,52,6336,62.8C6432,74,6528,95,6624,104C6720,113,6816,108,6864,106.2L6912,104L6912,130L6864,130C6816,130,6720,130,6624,130C6528,130,6432,130,6336,130C6240,130,6144,130,6048,130C5952,130,5856,130,5760,130C5664,130,5568,130,5472,130C5376,130,5280,130,5184,130C5088,130,4992,130,4896,130C4800,130,4704,130,4608,130C4512,130,4416,130,4320,130C4224,130,4128,130,4032,130C3936,130,3840,130,3744,130C3648,130,3552,130,3456,130C3360,130,3264,130,3168,130C3072,130,2976,130,2880,130C2784,130,2688,130,2592,130C2496,130,2400,130,2304,130C2208,130,2112,130,2016,130C1920,130,1824,130,1728,130C1632,130,1536,130,1440,130C1344,130,1248,130,1152,130C1056,130,960,130,864,130C768,130,672,130,576,130C480,130,384,130,288,130C192,130,96,130,48,130L0,130Z"/><defs><linearGradient id="sw-gradient-2" x1="0" x2="0" y1="1" y2="0"><stop stop-color="rgba(243, 106, 62, 1)" offset="0%"/><stop stop-color="rgba(255, 179, 11, 1)" offset="100%"/></linearGradient></defs><path style="transform:translate(0, 100px); opacity:0.8" fill="url(#sw-gradient-2)" d="M0,91L48,88.8C96,87,192,82,288,71.5C384,61,480,43,576,41.2C672,39,768,52,864,52C960,52,1056,39,1152,43.3C1248,48,1344,69,1440,84.5C1536,100,1632,108,1728,97.5C1824,87,1920,56,2016,47.7C2112,39,2208,52,2304,62.8C2400,74,2496,82,2592,88.8C2688,95,2784,100,2880,95.3C2976,91,3072,78,3168,73.7C3264,69,3360,74,3456,71.5C3552,69,3648,61,3744,56.3C3840,52,3936,52,4032,52C4128,52,4224,52,4320,47.7C4416,43,4512,35,4608,32.5C4704,30,4800,35,4896,30.3C4992,26,5088,13,5184,17.3C5280,22,5376,43,5472,52C5568,61,5664,56,5760,60.7C5856,65,5952,78,6048,80.2C6144,82,6240,74,6336,71.5C6432,69,6528,74,6624,80.2C6720,87,6816,95,6864,99.7L6912,104L6912,130L6864,130C6816,130,6720,130,6624,130C6528,130,6432,130,6336,130C6240,130,6144,130,6048,130C5952,130,5856,130,5760,130C5664,130,5568,130,5472,130C5376,130,5280,130,5184,130C5088,130,4992,130,4896,130C4800,130,4704,130,4608,130C4512,130,4416,130,4320,130C4224,130,4128,130,4032,130C3936,130,3840,130,3744,130C3648,130,3552,130,3456,130C3360,130,3264,130,3168,130C3072,130,2976,130,2880,130C2784,130,2688,130,2592,130C2496,130,2400,130,2304,130C2208,130,2112,130,2016,130C1920,130,1824,130,1728,130C1632,130,1536,130,1440,130C1344,130,1248,130,1152,130C1056,130,960,130,864,130C768,130,672,130,576,130C480,130,384,130,288,130C192,130,96,130,48,130L0,130Z"/></svg>